<?xml version="1.0" encoding="utf-8"?>
<!-- Generator: Adobe Illustrator 27.5.0, SVG Export Plug-In . SVG Version: 6.00 Build 0)  -->
<svg version="1.1" id="Layer_1" xmlns="http://www.w3.org/2000/svg" xmlns:xlink="http://www.w3.org/1999/xlink" x="0px" y="0px"
	 viewBox="0 0 486.636 535.358" style="enable-background:new 0 0 486.636 535.358;" xml:space="preserve">
<g>
	<path d="M456.667,0H151.168h-24.784h-1.839c-15.591,0-28.314,12.723-28.314,28.314v1.839v17.136h-10.7
		c-12.024,0-21.842,9.818-21.842,21.842c0,12.024,9.818,21.842,21.842,21.842h10.7v35.742h-10.7
		c-12.024,0-21.842,9.818-21.842,21.842S73.506,170.4,85.531,170.4h10.7v35.742h-10.7c-12.024,0-21.842,9.781-21.842,21.842
		c0,12.024,9.818,21.806,21.842,21.806h10.7v35.779h-10.7c-12.024,0-21.842,9.781-21.842,21.842
		c0,12.024,9.818,21.806,21.842,21.806h10.7v35.779h-10.7c-12.024,0-21.842,9.781-21.842,21.806
		c0,12.061,9.818,21.842,21.842,21.842h10.7v35.779h-10.7c-12.024,0-21.842,9.781-21.842,21.806
		c0,12.061,9.818,21.842,21.842,21.842h10.7v17.172v1.802c0,15.628,12.723,28.314,28.314,28.314h1.839h24.784h305.499
		c16.51,0,29.969-13.422,29.969-29.969V30.006C486.636,13.458,473.178,0,456.667,0z M85.531,83.619
		c-7.979,0-14.488-6.509-14.488-14.488c0-7.98,6.509-14.488,14.488-14.488h10.7h7.354h11.179c7.979,0,14.488,6.508,14.488,14.488
		c0,7.979-6.509,14.488-14.488,14.488h-11.179h-7.354H85.531z M85.531,163.045c-7.979,0-14.488-6.509-14.488-14.488
		s6.509-14.488,14.488-14.488h10.7h7.354h11.179c7.979,0,14.488,6.509,14.488,14.488s-6.509,14.488-14.488,14.488h-11.179h-7.354
		H85.531z M85.531,242.435c-7.979,0-14.488-6.472-14.488-14.451c0-7.98,6.509-14.488,14.488-14.488h10.7h7.354h11.179
		c7.979,0,14.488,6.508,14.488,14.488c0,7.979-6.509,14.451-14.488,14.451h-11.179h-7.354H85.531z M85.531,321.862
		c-7.979,0-14.488-6.472-14.488-14.451c0-7.979,6.509-14.488,14.488-14.488h10.7h7.354h11.179c7.979,0,14.488,6.509,14.488,14.488
		c0,7.979-6.509,14.451-14.488,14.451h-11.179h-7.354H85.531z M85.531,401.289c-7.979,0-14.488-6.472-14.488-14.488
		c0-7.979,6.509-14.451,14.488-14.451h10.7h7.354h11.179c7.979,0,14.488,6.472,14.488,14.451c0,8.016-6.509,14.488-14.488,14.488
		h-11.179h-7.354H85.531z M85.531,480.716c-7.979,0-14.488-6.509-14.488-14.488c0-7.979,6.509-14.451,14.488-14.451h10.7h7.354
		h11.179c7.979,0,14.488,6.472,14.488,14.451c0,7.979-6.509,14.488-14.488,14.488h-11.179h-7.354H85.531z M126.384,528.004
		c-12.576,0-22.798-10.222-22.798-22.762V488.07h11.179c12.061,0,21.842-9.781,21.842-21.842c0-12.024-9.781-21.806-21.842-21.806
		h-11.179v-35.779h11.179c12.061,0,21.842-9.781,21.842-21.842c0-12.024-9.781-21.806-21.842-21.806h-11.179v-35.779h11.179
		c12.061,0,21.842-9.781,21.842-21.806c0-12.061-9.781-21.842-21.842-21.842h-11.179V249.79h11.179
		c12.061,0,21.842-9.781,21.842-21.806c0-12.061-9.781-21.842-21.842-21.842h-11.179V170.4h11.179
		c12.061,0,21.842-9.818,21.842-21.842s-9.781-21.842-21.842-21.842h-11.179V90.973h11.179c12.061,0,21.842-9.818,21.842-21.842
		c0-12.024-9.781-21.842-21.842-21.842h-11.179V30.153c0-12.576,10.223-22.798,22.798-22.798h17.43v520.65H126.384z M151.168,7.354
		h24.752v520.65h-24.752V7.354z M479.282,505.389c0,12.466-10.149,22.615-22.615,22.615H183.509V7.354h273.158
		c12.466,0,22.615,10.149,22.615,22.651V505.389z"/>
	<path d="M426.147,126.715H234.64c-8.2,0-14.892,6.692-14.892,14.892v106.05c0,8.237,6.692,14.892,14.892,14.892h191.507
		c8.2,0,14.892-6.656,14.892-14.892v-106.05C441.039,133.407,434.347,126.715,426.147,126.715z M433.685,247.657
		c0,4.155-3.383,7.538-7.538,7.538H234.64c-4.155,0-7.538-3.383-7.538-7.538v-106.05c0-4.155,3.383-7.538,7.538-7.538h191.507
		c4.155,0,7.538,3.383,7.538,7.538V247.657z"/>
	<path d="M34.308,18.312c-2.464-0.735-5.038-1.103-7.649-1.103C11.951,17.209,0,29.16,0,43.869v8.457v7.354v12.686v7.354v11.951
		v3.677v378.858v0.515c0,0.147,0,0.294,0.147,0.919c0,0.184,0.037,0.331,0.11,0.478l0.037,0.037l22.982,56.297
		c0.588,1.397,1.912,2.28,3.42,2.28c1.471,0,2.831-0.883,3.383-2.28l22.982-56.297l0.037-0.037c0.074-0.147,0.11-0.294,0.11-0.478
		c0.11-0.294,0.147-0.588,0.147-0.919v-0.515V95.349v-3.677V79.721v-7.354V59.68v-7.354v-8.457
		C53.356,32.175,45.523,21.658,34.308,18.312z M30.704,511.567l-0.006,0.015h-8.004l-0.006-0.015L9.119,478.399h35.117
		L30.704,511.567z M46.001,471.045H7.354V95.349h38.647V471.045z M46.001,87.995H7.354v-8.274h38.647V87.995z M46.001,72.367H7.354
		V59.68h38.647V72.367z M46.001,52.326H7.354v-8.457c0-10.664,8.678-19.305,19.305-19.305c1.912,0,3.751,0.257,5.553,0.809
		c8.127,2.427,13.789,10.002,13.789,18.496V52.326z"/>
</g>
</svg>
