<?xml version="1.0" encoding="utf-8"?>
<!-- Generator: Adobe Illustrator 25.4.1, SVG Export Plug-In . SVG Version: 6.00 Build 0)  -->
<svg version="1.1" id="Слой_1" xmlns="http://www.w3.org/2000/svg" xmlns:xlink="http://www.w3.org/1999/xlink" x="0px" y="0px"
	 viewBox="0 0 64 64" style="enable-background:new 0 0 64 64;" xml:space="preserve">
<style type="text/css">
	.st0{fill:none;stroke:#000000;stroke-width:0.9844;stroke-miterlimit:10;}
	.st1{fill:none;stroke:#000000;stroke-width:0.8767;stroke-linecap:round;stroke-linejoin:round;stroke-miterlimit:10;}
	.st2{fill:none;stroke:#000000;stroke-width:0.8767;stroke-miterlimit:10;}
	.st3{fill:none;stroke:#000000;stroke-width:0.8767;stroke-linecap:round;stroke-miterlimit:10;}
	.st4{fill:none;stroke:#000000;stroke-width:0.8767;stroke-linejoin:round;stroke-miterlimit:10;}
	.st5{stroke:#000000;stroke-linecap:round;stroke-miterlimit:10;}
	.st6{fill:none;stroke:#000000;stroke-width:0.8761;stroke-linecap:round;stroke-linejoin:round;stroke-miterlimit:10;}
	.st7{stroke:#000000;stroke-linecap:round;stroke-linejoin:round;stroke-miterlimit:10;}
</style>
<circle class="st0" cx="32" cy="32" r="31.5"/>
<g>
	<path class="st1" d="M21.5,13.9"/>
	<path class="st1" d="M38.8,21c0,0,1.8-3,3-0.4c0.5,1.1,0.5,2.4,0.1,3.5c-0.5,1.5-1.5,3.2-2.9,1.1c0,0-0.3,7.7-8.7,8.2
		c0,0-7.3,0.8-9.4-7.7c0,0-1.3,0.4-2.3-0.6c-0.5-0.5-0.8-1.3-0.8-2c0-1.7,0.3-5.4,2.9-2.1"/>
	<path class="st2" d="M24.6,34.2"/>
	<line class="st2" x1="24.6" y1="31.7" x2="24.6" y2="34.7"/>
	<path class="st3" d="M16.6,53.5"/>
	<path class="st3" d="M16.6,51.3"/>
	<path class="st1" d="M24.6,34.7c0,0,1.7,2.8,5.1,5.3c0,0-1.7,2-5.8,4.5c0,0-2.2-1.2-2.5-7.4"/>
	<path class="st1" d="M35.1,34.7c0,0-1.7,2.5-5.1,5c0,0,2.1,2.3,6.2,4.8c0,0,2-2,2.2-7.1"/>
	<polyline class="st1" points="27.2,42.6 28.5,44.8 31.3,44.8 32.4,42.6 	"/>
	<path class="st1" d="M28.7,44.8c0,0-1.1,3.7-2,8.4"/>
	<path class="st1" d="M31.3,44.8c0,0,0.7,3.9,1.5,8.4"/>
	<line class="st2" x1="35.2" y1="35" x2="35.3" y2="32.1"/>
	<path class="st2" d="M35.2,35"/>
	<path class="st3" d="M42.5,53.5"/>
	<path class="st3" d="M42.4,51.3"/>
	<path class="st1" d="M38.2,13.2h12c1.4,0,2.6,1.1,2.6,2.6v27c0,1.4-1.1,2.6-2.6,2.6h-2.4"/>
	<line class="st1" x1="44.3" y1="16.8" x2="50.3" y2="16.8"/>
	<g>
		<line class="st1" x1="44.2" y1="20.2" x2="46.7" y2="20.2"/>
		<line class="st1" x1="48.9" y1="20.2" x2="50" y2="20.2"/>
	</g>
	<line class="st1" x1="46.3" y1="27.2" x2="50.3" y2="27.2"/>
	<line class="st1" x1="42.1" y1="30.6" x2="50.4" y2="30.6"/>
	<g>
		<line class="st1" x1="43.6" y1="35.6" x2="50.6" y2="35.6"/>
		<line class="st1" x1="39.4" y1="35.6" x2="41.2" y2="35.6"/>
	</g>
	<path class="st4" d="M24.6,33.4c0,0-1.5,3.6-9.8,7.6c0,0-3.6,2.2-3.5,9.2l0,2.9l6.9,0l23.4,0.2l6.9,0l0-2.9c0-7-3.5-9.2-3.5-9.2
		c-8.3-4-9.8-7.6-9.8-7.6"/>
	<path class="st1" d="M38.8,20.8c0.4-2.4,0.6-4.2,0.2-5.8c0,0-1.7-6.6-9.3-6.6c-8.2,0-9.1,7.1-9.1,7.1c-0.6,2.8,0.2,5.3,0.2,5.3"/>
</g>
<line class="st5" x1="34.2" y1="20.4" x2="34.2" y2="22.1"/>
<path class="st6" d="M32.6,27.5c-0.3,0.5-0.7,1-1.3,1.2c-0.9,0.4-1.9,0.2-2.6-0.3"/>
<path class="st5" d="M24.1,18.1c0,0,0.4-1.2,2.5-1.2"/>
<path class="st5" d="M36,18.1c0,0-0.5-1.2-2.6-1.1"/>
<polyline class="st7" points="27.4,21.3 26.1,21.2 25.3,21.6 "/>
</svg>
