<?xml version="1.0" encoding="utf-8"?>
<!-- Generator: Adobe Illustrator 25.4.1, SVG Export Plug-In . SVG Version: 6.00 Build 0)  -->
<svg version="1.1" id="Слой_1" xmlns="http://www.w3.org/2000/svg" xmlns:xlink="http://www.w3.org/1999/xlink" x="0px" y="0px"
	 viewBox="0 0 64 64" style="enable-background:new 0 0 64 64;" xml:space="preserve">
<style type="text/css">
	.st0{fill:none;stroke:#000000;stroke-width:0.9844;stroke-miterlimit:10;}
	.st1{fill:none;stroke:#000000;stroke-width:0.8241;stroke-linecap:round;stroke-linejoin:round;stroke-miterlimit:10;}
	.st2{fill:none;stroke:#000000;stroke-width:0.8241;stroke-miterlimit:10;}
	.st3{fill:none;stroke:#000000;stroke-width:0.8241;stroke-linecap:round;stroke-miterlimit:10;}
	.st4{fill:none;stroke:#000000;stroke-width:0.8241;stroke-linejoin:round;stroke-miterlimit:10;}
	.st5{stroke:#000000;stroke-width:0.8241;stroke-miterlimit:10;}
	.st6{stroke:#000000;stroke-width:0.61;stroke-miterlimit:10;}
	.st7{fill:none;stroke:#000000;stroke-width:0.4335;stroke-linecap:round;stroke-linejoin:round;stroke-miterlimit:10;}
	.st8{fill:none;}
	.st9{fill:none;stroke:#000000;stroke-width:0.8761;stroke-linecap:round;stroke-linejoin:round;stroke-miterlimit:10;}
	.st10{stroke:#000000;stroke-linecap:round;stroke-miterlimit:10;}
</style>
<circle class="st0" cx="32" cy="32.1" r="31.5"/>
<g>
	<path class="st1" d="M24.1,17.2"/>
	<path class="st1" d="M40.4,23.8c0,0,1.7-2.8,2.8-0.4c0.5,1,0.5,2.3,0.1,3.3c-0.2,0.6-1.4,3-2.7,1.1c0,0-0.3,7.3-8.2,7.8
		c0,0-6.9,0.8-8.8-7.3c0,0-1.2,0.4-2.2-0.6c-0.5-0.5-0.8-1.2-0.7-1.9c0-1.6,0.3-5.1,2.8-2c0,0-0.4-4.4,4-4.8c0,0,4.5-4.3,8.9,0
		C36.4,19,41,19.8,40.4,23.8z"/>
	<path class="st2" d="M27,36.3"/>
	<path class="st2" d="M27,33.9"/>
	<path class="st3" d="M19.5,54.5"/>
	<path class="st3" d="M19.5,52.4"/>
	<path class="st2" d="M37.1,34.3"/>
	<path class="st2" d="M37,37.1"/>
	<path class="st2" d="M37,37.1"/>
	<path class="st3" d="M43.9,54.5"/>
	<path class="st3" d="M43.8,52.4"/>
	<path class="st1" d="M25.4,37.7c0,0,6.5,7.9,13.3,0.2"/>
	<path class="st4" d="M36.6,34.5c0,0,0,0.7,0.4,1.3c0,0,1.5,3.3,9.2,7.2c0,0,3.4,2.1,3.3,8.7l0,2.7l-6.6,0L21,54.1l-6.6,0l0-2.7
		c0-6.6,3.3-8.7,3.3-8.7c7.8-3.8,9.2-7.2,9.2-7.2c0.4-0.6,0.4-1.4,0.4-1.4"/>
	<path class="st2" d="M37,35.8h5.2c0,0,3.4,0.2,3.7,3.7v3.3"/>
	<path class="st2" d="M27,35.8h-5.2c0,0-3.4,0.2-3.7,3.7v3.3"/>
	<line class="st2" x1="21.7" y1="40.6" x2="21.7" y2="54.1"/>
	<line class="st2" x1="24.6" y1="38.4" x2="24.6" y2="54.2"/>
	<line class="st2" x1="42.2" y1="40.7" x2="42.2" y2="54.2"/>
	<line class="st2" x1="39.3" y1="38.5" x2="39.3" y2="54.3"/>
	<path class="st5" d="M36.4,20.3"/>
	<circle class="st6" cx="22.7" cy="26.8" r="0.1"/>
	<circle class="st6" cx="41.8" cy="27" r="0.1"/>
	<path class="st7" d="M42.7,23.8c0.1-0.2,0.3-0.4,0.5-0.5c0.5-0.4,1.1-0.4,1.4-0.1c0.2,0.3,0,0.9-0.5,1.3"/>
	<path class="st7" d="M42.9,24.6c0.2-0.1,0.4-0.3,0.6-0.3c0.6-0.2,1.2,0,1.3,0.4c0.1,0.4-0.3,0.8-0.9,1"/>
	<path class="st8" d="M22.9,21.1L22,17.9c0,0,1.1-0.8,1-2.3"/>
	<path class="st2" d="M23,23.3c0,0-2.6-2.7-1-4.3c0,0-4.1,0,0.8-2.3c0,0,0,0,0-0.1c-0.5-0.1-2.7-0.6-2.8-2.3c0,0,3.5,1.5,3.7-0.7
		c0,0-1.5-0.4-1.2-1c0.1-0.3,1.7-0.8,2.6-0.8c0.5,0,0.8-0.1,1.4-0.3c2.7-0.9,10.5-3.8,9.8-1.2c0,0,3.5-0.1,3.1,2c0,0-0.1,1.4,2.4,2
		c0,0,2.3,0.6,3-0.9c0,0,1.1,2.7-1.6,3.1c0,0-0.1,0.1,0,0.1c0.4,0.2,1.8,1.2-0.1,1.6c0,0-0.8,3.3-2.1,4.9"/>
</g>
<path class="st9" d="M34.7,30.8c-0.3,0.5-0.7,1-1.3,1.2c-0.9,0.4-1.9,0.2-2.6-0.3"/>
<line class="st10" x1="28.6" y1="24.6" x2="28.6" y2="26.2"/>
<path class="st10" d="M27.7,21.3c0.4-0.1,0.8-0.2,1.5-0.2"/>
<line class="st10" x1="26.6" y1="22.3" x2="26.6" y2="22.3"/>
<path class="st10" d="M38,22.3c0,0-0.5-1.2-2.6-1.1"/>
<line class="st10" x1="35.9" y1="24.6" x2="35.9" y2="26.2"/>
</svg>
