<svg xmlns="http://www.w3.org/2000/svg" xml:space="preserve" id="Слой_1" x="0" y="0" style="enable-background:new 0 0 64 64" version="1.1" viewBox="0 0 64 64"><style>.st1{fill:none;stroke-linecap:round;stroke-linejoin:round}.st1,.st2{stroke:#000;stroke-miterlimit:10}.st2,.st3{fill:none}.st3,.st5{stroke:#000;stroke-linecap:round;stroke-miterlimit:10}</style><circle cx="32" cy="32" r="31.5" style="fill:#fff;stroke:#000;stroke-miterlimit:10"/><path d="M40 22.4s1.8-3 3-.4c.5 1.1.5 2.4.1 3.5-.5 1.5-1.5 3.2-2.9 1.1 0 0-.3 7.7-8.7 8.2 0 0-7.3.8-9.4-7.7 0 0-1.3.4-2.3-.6a3 3 0 0 1-.8-2c0-1.7.3-5.4 2.9-2.1" class="st1"/><path d="M25.7 33.1v3" class="st2"/><path d="M25.8 36.1s1.7 2.8 5.1 5.3c0 0-1.7 2-5.8 4.5 0 0-2.2-1.2-2.5-7.4M36.3 36.1s-1.7 2.5-5.1 5c0 0 2.1 2.3 6.2 4.8 0 0 2-2 2.2-7.1M28.3 44l1.4 2.3h2.8l1-2.3M29.8 46.3s-1.1 3.7-2 8.4M32.5 46.3l1.5 8.4" class="st1"/><path d="m36.3 36.5.2-3" class="st2"/><path d="M40.5 13.6H51c1.4 0 2.6 1.1 2.6 2.6v27c0 1.4-1.1 2.6-2.6 2.6h-2.4M45.2 17.2h6M45.1 20.5h2.5M49.7 20.5h1.1M47.1 27.6h4.1M43 30.9h8.3M44.5 35.9h6.9M40.3 35.9h1.8" class="st1"/><path d="M25.7 34.9s-1.5 3.6-9.8 7.6c0 0-3.6 2.2-3.5 9.2v2.9h6.9l23.4.2h6.9v-2.9c0-7-3.5-9.2-3.5-9.2-8.3-4-9.8-7.6-9.8-7.6" style="fill:none;stroke:#000;stroke-linejoin:round;stroke-miterlimit:10"/><path d="M35.4 21.8v1.7" class="st5"/><path d="M33.8 29c-.3.5-.7 1-1.3 1.2-.9.4-1.9.2-2.6-.3" class="st1"/><path d="M25.3 19.6s.4-1.2 2.5-1.2M37.2 19.5s-.5-1.2-2.6-1.1" class="st5"/><path d="m28.6 22.8-1.4-.1-.8.3" style="stroke:#000;stroke-linecap:round;stroke-linejoin:round;stroke-miterlimit:10"/><path d="M21.7 21.3s-3.3-8.5 1.1-10.5c0 0 1.6-4.2 6.9-3.5 0 0 8 1.7 11.1-.3 0 0 .2 1.1-1.6 3.8 0 0 1.2.9 2.8-.5 0 0-.3 3.2-2.9 4.1 0 0-3 1.1-5.1.1 0 0-.2 1.1.8 2.3 0 0-1.8.3-5.3-2 0 0-.1.7.3 2 0 0-2.4-.2-4.9-1.9 0 0 0 4.8-2.8 7.4" class="st1"/><path d="M40.7 13.8s1.6 4.5-.7 8.6c0 0-2-4-1.9-7.4" class="st1"/></svg>