<?xml version="1.0" encoding="utf-8"?>
<!-- Generator: Adobe Illustrator 25.4.1, SVG Export Plug-In . SVG Version: 6.00 Build 0)  -->
<svg version="1.1" id="Слой_1" xmlns="http://www.w3.org/2000/svg" xmlns:xlink="http://www.w3.org/1999/xlink" x="0px" y="0px"
	 viewBox="0 0 64 64" style="enable-background:new 0 0 64 64;" xml:space="preserve">
<style type="text/css">
	.st0{fill:none;stroke:#000000;stroke-width:0.9844;stroke-miterlimit:10;}
	.st1{fill:none;stroke:#000000;stroke-width:0.8408;stroke-linecap:round;stroke-linejoin:round;stroke-miterlimit:10;}
	.st2{fill:none;stroke:#000000;stroke-width:0.8408;stroke-miterlimit:10;}
	.st3{fill:none;stroke:#000000;stroke-width:0.8408;stroke-linecap:round;stroke-miterlimit:10;}
	.st4{fill:none;stroke:#000000;stroke-width:0.8408;stroke-linejoin:round;stroke-miterlimit:10;}
	.st5{fill:none;stroke:#000000;stroke-width:0.8761;stroke-linecap:round;stroke-linejoin:round;stroke-miterlimit:10;}
	.st6{stroke:#000000;stroke-linecap:round;stroke-miterlimit:10;}
</style>
<circle class="st0" cx="32" cy="32.1" r="31.5"/>
<g>
	<path class="st1" d="M23.9,16.4"/>
	<path class="st1" d="M39.6,18L39.6,18c-0.7-0.4-2-0.6-2.8-0.7L35,17.5c-0.5,0-1-0.1-1.5-0.3l-1.7-0.5c-1.1-0.4-2.2-0.3-3.3,0
		l-3.3,2.2c-0.3,0.2-0.6,0.3-0.9,0.5c-1.3,0.7-1,3.8-1,3.8c-2.5-3.2-3.3-0.2-3.3,1.4c0,0.7,0.7,2.1,1.2,2.6c1,1,2.2,0.6,2.2,0.6
		c2,8.2,9,7.4,9,7.4c8.1-0.4,8.4-7.9,8.4-7.9c1.3,2,2.7-0.1,3.2-1.5c0.4-1.1,0.6-2,0.1-3.1c-1.2-2.5-3.6,0.5-3.6,0.5
		S41.4,19.8,39.6,18z"/>
	<path class="st2" d="M26.9,35.9"/>
	<path class="st3" d="M26.5,36.1"/>
	<path class="st3" d="M26.9,33.5"/>
	<path class="st3" d="M19.2,54.5"/>
	<path class="st3" d="M19.2,52.4"/>
	<path class="st3" d="M37.6,36.2"/>
	<path class="st3" d="M37.2,33.9"/>
	<path class="st1" d="M37.1,36.7"/>
	<path class="st3" d="M44.1,54.5"/>
	<path class="st3" d="M44,52.4"/>
	<path class="st2" d="M25.6,22.6"/>
	<path class="st2" d="M23.1,21.5"/>
	<path class="st2" d="M40.8,21.5"/>
	<path class="st2" d="M38.6,22.6"/>
	<path class="st4" d="M25.3,37.6c1-0.9,1.2-1.4,1.2-1.4c0.6-1.2,0.6-2.5,0.6-2.5"/>
	<path class="st4" d="M44,41.4c0.7,0.4,1.6,0.9,2.5,1.3c0,0,3.4,2.1,3.4,8.8l0,2.8l-6.7,0l-22.5-0.2l-6.7,0l0-2.8
		c0-6.7,3.4-8.8,3.4-8.8c1.1-0.5,2-1,2.9-1.5"/>
	<path class="st4" d="M37.2,33.9c0,0-0.1,1,0.4,2.3c0,0,0.2,0.6,1.3,1.6"/>
	<path class="st1" d="M44,41.4v8.4c0,0.7-0.6,1.3-1.3,1.3H21.3c-0.7,0-1.3-0.6-1.3-1.3V38.9c0-0.7,0.6-1.3,1.3-1.3h17.3"/>
	<path class="st1" d="M38.6,37.6h4.1c0.7,0,1.3,0.6,1.3,1.3v2.5"/>
	<path class="st1" d="M44.5,54.3c2.8-1.7,1.6-3.3,1.6-3.3h-28"/>
	<path class="st1" d="M19.8,54.1C17,52.5,18.1,51,18.1,51"/>
	<path class="st2" d="M22.5,22.3c0,0-1.6-2.1-1.2-5c0,0,0-3.5,4.3-5.8c0,0,3.6-2.3,6.9-1.8c0,0,4.7-0.9,6.1,0.4
		c0.2,0.2,1.4,2.6,2,3.1c0,0,2.4,0.7,2.6,3.1c0,0,0.6,3.6-1.9,5.9"/>
	<line class="st3" x1="33.7" y1="40" x2="31.3" y2="48.6"/>
	<polyline class="st1" points="29,41.8 25.4,44.3 29,46.8 	"/>
	<polyline class="st1" points="36.2,41.9 39.9,44.4 36.2,46.9 	"/>
</g>
<path class="st5" d="M34.9,29.5c-0.3,0.5-0.7,1-1.3,1.2c-0.9,0.4-1.9,0.2-2.6-0.3"/>
<line class="st6" x1="36.4" y1="23.5" x2="36.4" y2="25.2"/>
<line class="st6" x1="28.3" y1="23.5" x2="28.3" y2="25.2"/>
<path class="st6" d="M26.2,21.2c0,0,0.4-1.2,2.5-1.2"/>
<path class="st6" d="M38.2,21.2c0,0-0.5-1.2-2.6-1.1"/>
</svg>
