<svg xmlns="http://www.w3.org/2000/svg" xml:space="preserve" id="Слой_1" x="0" y="0" style="enable-background:new 0 0 64 64" version="1.1" viewBox="0 0 64 64"><style>.st1{stroke-linecap:round;stroke-linejoin:round}.st1,.st2{fill:none;stroke:#000;stroke-miterlimit:10}.st3{fill:none;stroke-linecap:round}.st3,.st4,.st5{stroke:#000;stroke-miterlimit:10}.st4{fill:none;stroke-linejoin:round}.st5{stroke-linecap:round}</style><circle cx="32" cy="32.1" r="31.5" style="fill:#fff;stroke:#000;stroke-miterlimit:10"/><path d="M39.6 18h0c-.7-.4-2-.6-2.8-.7l-1.8.2a4 4 0 0 1-1.5-.3l-1.7-.5a5.3 5.3 0 0 0-3.3 0l-3.3 2.2-.9.5c-1.3.7-1 3.8-1 3.8C20.8 20 20 23 20 24.6c0 .7.7 2.1 1.2 2.6 1 1 2.2.6 2.2.6 2 8.2 9 7.4 9 7.4 8.1-.4 8.4-7.9 8.4-7.9 1.3 2 2.7-.1 3.2-1.5.4-1.1.6-2 .1-3.1-1.2-2.5-3.6.5-3.6.5s.9-3.4-.9-5.2z" class="st1"/><path d="M25.3 37.6c1-.9 1.2-1.4 1.2-1.4.6-1.2.6-2.5.6-2.5M44 41.4l2.5 1.3s3.4 2.1 3.4 8.8v2.8h-6.7l-22.5-.2H14v-2.8c0-6.7 3.4-8.8 3.4-8.8l2.9-1.5M37.2 33.9s-.1 1 .4 2.3c0 0 .2.6 1.3 1.6" class="st4"/><path d="M44 41.4v8.4c0 .7-.6 1.3-1.3 1.3H21.3c-.7 0-1.3-.6-1.3-1.3V38.9c0-.7.6-1.3 1.3-1.3h17.3" class="st1"/><path d="M38.6 37.6h4.1c.7 0 1.3.6 1.3 1.3v2.5M44.5 54.3c2.8-1.7 1.6-3.3 1.6-3.3h-28M19.8 54.1C17 52.5 18.1 51 18.1 51" class="st1"/><path d="M22.5 22.3s-1.6-2.1-1.2-5c0 0 0-3.5 4.3-5.8 0 0 3.6-2.3 6.9-1.8 0 0 4.7-.9 6.1.4.2.2 1.4 2.6 2 3.1 0 0 2.4.7 2.6 3.1 0 0 .6 3.6-1.9 5.9" class="st2"/><path d="m33.7 40-2.4 8.6" class="st3"/><path d="m29 41.8-3.6 2.5 3.6 2.5M36.2 41.9l3.7 2.5-3.7 2.5M34.9 29.5c-.3.5-.7 1-1.3 1.2-.9.4-1.9.2-2.6-.3" class="st1"/><path d="M36.4 23.5v1.7M28.3 23.5v1.7M26.2 21.2s.4-1.2 2.5-1.2M38.2 21.2s-.5-1.2-2.6-1.1" class="st5"/></svg>