<?xml version="1.0" encoding="utf-8"?>
<!-- Generator: Adobe Illustrator 25.4.1, SVG Export Plug-In . SVG Version: 6.00 Build 0)  -->
<svg version="1.1" id="Слой_1" xmlns="http://www.w3.org/2000/svg" xmlns:xlink="http://www.w3.org/1999/xlink" x="0px" y="0px"
	 viewBox="0 0 64 64" style="enable-background:new 0 0 64 64;" xml:space="preserve">
<style type="text/css">
	.st0{fill:none;stroke:#000000;stroke-width:0.9844;stroke-miterlimit:10;}
	.st1{fill:none;stroke:#000000;stroke-width:0.7974;stroke-linejoin:round;stroke-miterlimit:10;}
	.st2{fill:none;stroke:#000000;stroke-width:0.7974;stroke-linecap:round;stroke-linejoin:round;stroke-miterlimit:10;}
	.st3{fill:none;stroke:#000000;stroke-width:0.7974;stroke-miterlimit:10;}
	.st4{stroke:#000000;stroke-linecap:round;stroke-miterlimit:10;}
	.st5{fill:none;stroke:#000000;stroke-width:0.8761;stroke-linecap:round;stroke-linejoin:round;stroke-miterlimit:10;}
</style>
<circle class="st0" cx="32" cy="32" r="31.5"/>
<g>
	<path class="st1" d="M23.7,25.8c0,0-1.4-6.8,3.5-10c0,0,4.4-3.7,9.2,0c0,0,4.8,2.6,3.6,10c0,0,4.4-2.3,3.6,1.6c0,0-0.9,3.3-3.4,2.2
		c0,0-0.3,7.1-7.9,7.5c0,0-6.7,0.8-8.6-7c0,0-2.3,2.1-4.1-1.4C19.7,28.8,17.9,25.1,23.7,25.8z"/>
	<path class="st2" d="M19.4,27.3c0,0-3.5-0.8-3.6-3.1c0,0,0-2,3.4-3.7c0,0-2.3-0.4-2.7-1c0,0-1.2-1.1,4.1-2.9c0,0-3.4,0.6-2.5-6.2
		c0-0.1,0.1-0.1,0.1,0c0.3,0.5,1.3,1.8,5.9,2.7c0,0-1.7-2.3-1.6-3.1c0,0-0.1-2.1,1.6-0.4c0,0,1.3,1.7,2.3,0.1c0,0,1-3.1,3.7-3.1
		c0,0,3.7-0.5,2.1,1c0,0-1.3,1.3-1,1.9c0,0,1-2,4.7-1.9c0,0-1.7,1.6-0.9,2.3c0,0,0.9-1.1,3.8-1.1C39,8.8,43,9,41.8,11
		c-0.2,0.3-0.4,0.5-0.7,0.7c-0.6,0.4-1.9,1.6-0.1,2.4c0.3,0.1,1.6,1,4.5,0.8c0,0-0.1,1-2.7,2.6c0,0,3.9,0.5,3.7,2
		c0,0,0.3,0.9-1.8,0.8c0,0,5.8,4.6-1.2,7.4"/>
	<path class="st3" d="M28.1,22.8c0,0-2.5,0.1-3.2,3.5c0,0-0.7,3.2,2.9,3.2c0,0,3.3,0.2,3.4-3.4C31.2,26.2,31.3,22.6,28.1,22.8z"/>
	<path class="st3" d="M35.8,22.8c0,0,2.6,0,3.2,3.5c0,0,0.5,3.3-2.9,3.2c0,0-3.3,0.2-3.4-3.4C32.7,26.2,32.6,22.6,35.8,22.8z"/>
	<line class="st3" x1="31.2" y1="26.2" x2="32.7" y2="26.2"/>
	<line class="st3" x1="27.1" y1="53.6" x2="27.1" y2="55.5"/>
	<line class="st3" x1="27" y1="35.6" x2="27.1" y2="53.6"/>
	<path class="st2" d="M25,39.9c0,0-4.4,5-4,6.2c0,0,0.4,0.9,3.3,3.4c0,0-2.8,2.9-1.3,5.7l0,0"/>
	<path class="st2" d="M27.1,38.3c0,0,1.5,2.6,4.6,4.9c0,0-0.7,1.4-4.4,3.7"/>
	<path class="st2" d="M36.7,38.3c0,0-1.6,2.3-4.7,4.6c0,0,0.6,1.7,4.3,3.9"/>
	<polyline class="st2" points="29.4,45.5 30.6,47.6 33.2,47.6 34.2,45.5 	"/>
	<path class="st2" d="M30.8,47.6c0,0-1.7,4.3-2.8,7.6"/>
	<path class="st2" d="M33.2,47.6c0,0,1.2,3.5,2.1,7.8"/>
	<line class="st3" x1="36.1" y1="53.5" x2="36.8" y2="36"/>
	<line class="st3" x1="36" y1="55.5" x2="36.1" y2="53.5"/>
	<path class="st2" d="M40.5,53.6c0,0.5-0.1,1.1-0.4,1.6l0,0"/>
	<path class="st2" d="M38.6,39.7c0,0,4,6.4,3.6,7.6c0,0-0.6,0.6-3.5,3.1c0,0,1.8,1.2,1.9,3.1"/>
	<path class="st1" d="M27.2,37.3c0,0-1.4,3.2-8.9,6.9c0,0-3.2,2-3.2,8.4l0,2.6l6.3,0l21.3,0.2l6.3,0l0-2.6c0-6.4-3.2-8.4-3.2-8.4
		c-7.5-3.7-8.9-6.9-8.9-6.9"/>
</g>
<line class="st4" x1="35.9" y1="25" x2="35.9" y2="26.7"/>
<path class="st5" d="M34.5,31.9c-0.3,0.5-0.7,1-1.3,1.2c-0.9,0.4-1.9,0.2-2.6-0.3"/>
<path class="st4" d="M26,22.5c0,0,0.4-1.2,2.5-1.2"/>
<path class="st4" d="M38,22.5c0,0-0.5-1.2-2.6-1.1"/>
<line class="st4" x1="28.3" y1="25" x2="28.3" y2="26.7"/>
</svg>
