<svg xmlns="http://www.w3.org/2000/svg" xml:space="preserve" id="Слой_1" x="0" y="0" style="enable-background:new 0 0 64 64" version="1.1" viewBox="0 0 64 64"><style>.st1,.st2{fill:none;stroke-width:1.0187;stroke-linejoin:round}.st1{stroke:#000;stroke-miterlimit:10}.st2{stroke-linecap:round}.st2,.st3,.st4,.st5{stroke:#000;stroke-miterlimit:10}.st3{fill:none}.st4,.st5{stroke-width:1.0187}.st4{fill:none}.st5{stroke-linecap:round}</style><circle cx="32" cy="32" r="31.5" style="fill:#fff;stroke:#000;stroke-miterlimit:10"/><path d="M23.5 25.7s-1.5-6.9 3.6-10.2c0 0 4.5-3.8 9.4 0 0 0 4.8 2.7 3.7 10.2 0 0 4.5-2.3 3.7 1.7 0 0-.9 3.3-3.5 2.3 0 0-.3 7.2-8.1 7.7 0 0-6.8.8-8.7-7.2 0 0-2.4 2.1-4.1-1.4 0 0-1.8-3.8 4-3.1z" class="st1"/><path d="M19.2 27.2s-3.5-.8-3.7-3.1c0 0 0-2.1 3.4-3.8 0 0-2.3-.4-2.8-1 0 0-1.2-1.1 4.2-2.9 0 0-3.4.6-2.6-6.4 0-.1.1-.1.1 0 .3.6 1.4 1.8 6 2.7 0 0-1.7-2.3-1.6-3.1 0 0-.1-2.1 1.6-.4 0 0 1.3 1.8 2.4.1 0 0 1-3.1 3.8-3.1 0 0 3.8-.6 2.1 1 0 0-1.3 1.3-1 1.9 0 0 1-2 4.8-1.9 0 0-1.8 1.6-.9 2.3 0 0 .9-1.1 3.9-1.1.2 0 4.2.2 3 2.2l-.7.7c-.6.5-1.9 1.6-.1 2.5.3.1 1.7 1.1 4.6.8 0 0-.1 1-2.7 2.6 0 0 4 .5 3.8 2 0 0 .3.9-1.8.9 0 0 5.9 4.6-1.2 7.6" class="st2"/><path d="M28.1 22.7s-2.6.1-3.2 3.6c0 0-.7 3.3 3 3.2 0 0 3.4.2 3.4-3.4-.1 0 0-3.6-3.2-3.4zM35.9 22.7s2.6 0 3.2 3.6c0 0 .6 3.4-3 3.2 0 0-3.4.2-3.4-3.4 0 0-.1-3.6 3.2-3.4zM31.2 26.1h1.5" class="st3"/><path d="M27 54v2M26.9 35.7 27 54" class="st4"/><path d="M24.9 40.1s-4.5 5.1-4 6.3c0 0 .4 1 3.4 3.5 0 0-2.8 2.9-1.3 5.8h0M27 38.5s1.5 2.6 4.7 5c0 0-.7 1.4-4.5 3.8M36.8 38.5s-1.6 2.3-4.8 4.7c0 0 .6 1.7 4.4 4" class="st2"/><path d="m29.4 45.8 1.2 2.1h2.6l1-2.1M30.7 47.9s-1.8 4.3-2.8 7.8M33.2 47.9s1.2 3.6 2.1 7.9" class="st2"/><path d="m36.2 53.9.7-17.8M36.1 56l.1-2.1" class="st4"/><path d="M40.7 54c0 .5-.1 1.1-.4 1.7h0" class="st2"/><path d="M38.7 39.9s4.1 6.5 3.7 7.8c0 0-.6.7-3.6 3.2 0 0 1.9 1.2 1.9 3.2" class="st2"/><path d="M27.1 37.4s-1.4 3.3-9.1 7.1c0 0-3.3 2.1-3.3 8.5v2.7h6.5l21.7.2h6.5v-2.7c0-6.5-3.3-8.5-3.3-8.5-7.7-3.7-9.1-7.1-9.1-7.1" class="st1"/><path d="M35.9 24.9v1.7" class="st5"/><path d="M34.6 32c-.3.5-.7 1-1.3 1.2-.9.4-1.9.2-2.7-.3" class="st2"/><path d="M25.9 22.4s.4-1.2 2.6-1.2M38.1 22.3s-.5-1.2-2.6-1.2M28.2 24.9v1.7" class="st5"/></svg>