<?xml version="1.0" encoding="utf-8"?>
<!-- Generator: Adobe Illustrator 25.4.1, SVG Export Plug-In . SVG Version: 6.00 Build 0)  -->
<svg version="1.1" id="Слой_1" xmlns="http://www.w3.org/2000/svg" xmlns:xlink="http://www.w3.org/1999/xlink" x="0px" y="0px"
	 viewBox="0 0 64 64" style="enable-background:new 0 0 64 64;" xml:space="preserve">
<style type="text/css">
	.st0{fill:none;stroke:#000000;stroke-width:0.9844;stroke-miterlimit:10;}
	.st1{fill:none;stroke:#000000;stroke-width:0.8761;stroke-linecap:round;stroke-linejoin:round;stroke-miterlimit:10;}
	.st2{fill:none;stroke:#000000;stroke-width:0.8761;stroke-miterlimit:10;}
	.st3{fill:none;stroke:#000000;stroke-width:0.8761;stroke-linecap:round;stroke-miterlimit:10;}
	.st4{fill:none;stroke:#000000;stroke-width:0.8761;stroke-linejoin:round;stroke-miterlimit:10;}
	.st5{stroke:#000000;stroke-linecap:round;stroke-miterlimit:10;}
	.st6{stroke:#000000;stroke-linecap:round;stroke-linejoin:round;stroke-miterlimit:10;}
</style>
<circle class="st0" cx="32" cy="32.1" r="31.5"/>
<path class="st1" d="M21.5,13.8"/>
<path class="st1" d="M29.7,8.5c-8.2,0-9.1,7.1-9.1,7.1c-0.6,2.8,0.2,5.3,0.2,5.3c-2.6-3.3-3.4-0.2-3.4,1.5c0,0.8,0.7,2.1,1.2,2.7
	c1,1,2.3,0.6,2.3,0.6c2.1,8.6,9.4,7.7,9.4,7.7c8.4-0.5,8.7-8.3,8.7-8.3c1.4,2.1,2.9-0.1,3.4-1.6c0.4-1.2,0.7-2.1,0.1-3.2
	c-1.2-2.6-3.8,0.5-3.8,0.5c0.4-2.4,0.6-4.2,0.2-5.8C39,15.1,37.3,8.5,29.7,8.5z"/>
<path class="st2" d="M24.6,34.2"/>
<line class="st2" x1="24.6" y1="31.6" x2="24.6" y2="34.6"/>
<path class="st3" d="M16.6,53.5"/>
<path class="st3" d="M16.6,51.3"/>
<path class="st1" d="M24.6,34.6c0,0,1.7,2.8,5.1,5.3c0,0-1.7,2-5.8,4.5c0,0-2.2-1.2-2.5-7.4"/>
<path class="st1" d="M35.1,34.6c0,0-1.7,2.5-5.1,5c0,0,2.1,2.3,6.2,4.8c0,0,2-2,2.2-7.1"/>
<polyline class="st1" points="27.2,42.5 28.5,44.8 31.3,44.8 32.4,42.5 "/>
<path class="st1" d="M28.6,44.8c0,0-1.1,3.7-2,8.4"/>
<path class="st1" d="M31.3,44.8c0,0,0.7,3.9,1.5,8.4"/>
<line class="st2" x1="35.2" y1="35" x2="35.3" y2="32"/>
<path class="st2" d="M35.2,35"/>
<path class="st3" d="M42.5,53.5"/>
<path class="st3" d="M42.4,51.3"/>
<path class="st1" d="M38.1,13.1h12.1c1.4,0,2.6,1.2,2.6,2.6v27.1c0,1.4-1.2,2.6-2.6,2.6h-2.4"/>
<line class="st1" x1="42.6" y1="16.7" x2="50.4" y2="16.7"/>
<g>
	<line class="st1" x1="44.3" y1="20.1" x2="46.8" y2="20.1"/>
	<line class="st1" x1="48.9" y1="20.1" x2="50" y2="20.1"/>
</g>
<line class="st1" x1="46.3" y1="27.2" x2="50.4" y2="27.2"/>
<line class="st1" x1="42.2" y1="30.5" x2="50.5" y2="30.5"/>
<g>
	<line class="st1" x1="43.7" y1="35.5" x2="50.6" y2="35.5"/>
	<line class="st1" x1="39.5" y1="35.5" x2="41.3" y2="35.5"/>
</g>
<path class="st4" d="M24.6,33.4c0,0-1.5,3.6-9.8,7.6c0,0-3.6,2.2-3.5,9.2l0,2.9l7,0l23.4,0.2l7,0l0-2.9c0-7-3.5-9.2-3.5-9.2
	c-8.3-4-9.8-7.6-9.8-7.6"/>
<path class="st2" d="M23.2,20.3"/>
<path class="st2" d="M20.6,19.1"/>
<path class="st2" d="M39,19.1"/>
<path class="st2" d="M36.8,20.3"/>
<path class="st2" d="M38.9,20.5l-2,4.8c-1.4,2.5-4.5,0.6-4.5,0.6l-5.2,0c-3,1.6-4.2-0.8-4.2-0.8l-2.1-4.3l0.1,4.8"/>
<line class="st1" x1="38.9" y1="20.9" x2="39.1" y2="25.1"/>
<path class="st1" d="M28.4,29.4"/>
<path class="st1" d="M32.4,28.7c-0.4,0.5-0.9,0.8-1.5,1c-0.5,0.1-0.9,0.1-1.4,0"/>
<line class="st5" x1="34.2" y1="20" x2="34.2" y2="21.7"/>
<path class="st5" d="M24.1,17.8c0,0,0.4-1.2,2.5-1.2"/>
<path class="st5" d="M36,17.7c0,0-0.5-1.2-2.6-1.1"/>
<polyline class="st6" points="27.5,20.8 26.1,20.7 25.3,21.1 "/>
</svg>
