<svg xmlns="http://www.w3.org/2000/svg" xml:space="preserve" id="Слой_1" x="0" y="0" style="enable-background:new 0 0 64 64" version="1.1" viewBox="0 0 64 64"><style>.st1{fill:none;stroke-linecap:round;stroke-linejoin:round}.st1,.st2{stroke:#000;stroke-miterlimit:10}.st2,.st3{fill:none}.st3,.st5{stroke:#000;stroke-linecap:round;stroke-miterlimit:10}</style><circle cx="32" cy="32.1" r="31.5" style="fill:#fff;stroke:#000;stroke-miterlimit:10"/><path d="M29.7 8.5a8.5 8.5 0 0 0-9.1 7.1c-.6 2.8.2 5.3.2 5.3-2.6-3.3-3.4-.2-3.4 1.5 0 .8.7 2.1 1.2 2.7 1 1 2.3.6 2.3.6 2.1 8.6 9.4 7.7 9.4 7.7 8.4-.5 8.7-8.3 8.7-8.3 1.4 2.1 2.9-.1 3.4-1.6.4-1.2.7-2.1.1-3.2-1.2-2.6-3.8.5-3.8.5.4-2.4.6-4.2.2-5.8.1.1-1.6-6.5-9.2-6.5z" class="st1"/><path d="M24.6 31.6v3" class="st2"/><path d="M24.6 34.6s1.7 2.8 5.1 5.3c0 0-1.7 2-5.8 4.5 0 0-2.2-1.2-2.5-7.4M35.1 34.6s-1.7 2.5-5.1 5c0 0 2.1 2.3 6.2 4.8 0 0 2-2 2.2-7.1M27.2 42.5l1.3 2.3h2.8l1.1-2.3M28.6 44.8s-1.1 3.7-2 8.4M31.3 44.8l1.5 8.4" class="st1"/><path d="m35.2 35 .1-3" class="st2"/><path d="M38.1 13.1h12.1c1.4 0 2.6 1.2 2.6 2.6v27.1c0 1.4-1.2 2.6-2.6 2.6h-2.4M42.6 16.7h7.8M44.3 20.1h2.5M48.9 20.1H50M46.3 27.2h4.1M42.2 30.5h8.3M43.7 35.5h6.9M39.5 35.5h1.8" class="st1"/><path d="M24.6 33.4S23.1 37 14.8 41c0 0-3.6 2.2-3.5 9.2v2.9h7l23.4.2h7v-2.9c0-7-3.5-9.2-3.5-9.2-8.3-4-9.8-7.6-9.8-7.6" style="fill:none;stroke:#000;stroke-linejoin:round;stroke-miterlimit:10"/><path d="m38.9 20.5-2 4.8c-1.4 2.5-4.5.6-4.5.6h-5.2c-3 1.6-4.2-.8-4.2-.8l-2.1-4.3.1 4.8" class="st2"/><path d="m38.9 20.9.2 4.2M32.4 28.7a3 3 0 0 1-1.5 1h-1.4" class="st1"/><path d="M34.2 20v1.7M24.1 17.8s.4-1.2 2.5-1.2M36 17.7s-.5-1.2-2.6-1.1" class="st5"/><path d="m27.5 20.8-1.4-.1-.8.4" style="stroke:#000;stroke-linecap:round;stroke-linejoin:round;stroke-miterlimit:10"/></svg>