<svg xmlns="http://www.w3.org/2000/svg" xml:space="preserve" id="Слой_1" x="0" y="0" style="enable-background:new 0 0 64 64" version="1.1" viewBox="0 0 64 64"><style>.st1{stroke-linecap:round;stroke-linejoin:round;fill:none}.st1,.st2,.st6,.st7{stroke:#000;stroke-miterlimit:10}.st2{fill:none}.st6,.st7{stroke-width:.61}.st7{fill:none;stroke-width:.433;stroke-linejoin:round;stroke-linecap:round}</style><circle cx="32" cy="32.1" r="31.5" style="fill:#fff;stroke:#000;stroke-miterlimit:10"/><path d="M40.4 23.8s1.7-2.8 2.8-.4c.5 1 .5 2.3.1 3.3-.2.6-1.4 3-2.7 1.1 0 0-.3 7.3-8.2 7.8 0 0-6.9.8-8.8-7.3 0 0-1.2.4-2.2-.6-.5-.5-.8-1.2-.7-1.9 0-1.6.3-5.1 2.8-2 0 0-.4-4.4 4-4.8 0 0 4.5-4.3 8.9 0 0 0 4.6.8 4 4.8zm-15 13.9s6.5 7.9 13.3.2" class="st1"/><path d="M36.6 34.5s0 .7.4 1.3c0 0 1.5 3.3 9.2 7.2 0 0 3.4 2.1 3.3 8.7v2.7h-6.6L21 54.1h-6.6v-2.7c0-6.6 3.3-8.7 3.3-8.7 7.8-3.8 9.2-7.2 9.2-7.2.4-.6.4-1.4.4-1.4" style="fill:none;stroke:#000;stroke-linejoin:round;stroke-miterlimit:10"/><path d="M37 35.8h5.2s3.4.2 3.7 3.7v3.3m-18.9-7h-5.2s-3.4.2-3.7 3.7v3.3m3.6-2.2v13.5m2.9-15.7v15.8m17.6-13.5v13.5m-2.9-15.7v15.8" class="st2"/><circle cx="22.7" cy="26.8" r=".1" class="st6"/><circle cx="41.8" cy="27" r=".1" class="st6"/><path d="m42.7 23.8.5-.5c.5-.4 1.1-.4 1.4-.1.2.3 0 .9-.5 1.3" class="st7"/><path d="m42.9 24.6.6-.3c.6-.2 1.2 0 1.3.4.1.4-.3.8-.9 1" class="st7"/><path d="m22.9 21.1-.9-3.2s1.1-.8 1-2.3" style="fill:none"/><path d="M23 23.3s-2.6-2.7-1-4.3c0 0-4.1 0 .8-2.3v-.1c-.5-.1-2.7-.6-2.8-2.3 0 0 3.5 1.5 3.7-.7 0 0-1.5-.4-1.2-1 .1-.3 1.7-.8 2.6-.8.5 0 .8-.1 1.4-.3 2.7-.9 10.5-3.8 9.8-1.2 0 0 3.5-.1 3.1 2 0 0-.1 1.4 2.4 2 0 0 2.3.6 3-.9 0 0 1.1 2.7-1.6 3.1 0 0-.1.1 0 .1.4.2 1.8 1.2-.1 1.6 0 0-.8 3.3-2.1 4.9" class="st2"/><path d="M34.7 30.8c-.3.5-.7 1-1.3 1.2-.9.4-1.9.2-2.6-.3" class="st1"/><path d="M28.6 24.6v1.6m-1.1-4.9 1.5-.2m-2.6 1.2h0m11.6 0s-.5-1.2-2.6-1.1" style="stroke:#000;stroke-linecap:round;stroke-miterlimit:10"/><path d="m34.9 25.3 1.3-.1.8.4" style="stroke:#000;stroke-linecap:round;stroke-linejoin:round;stroke-miterlimit:10"/></svg>